<?xml version="1.0" encoding="UTF-8"?>
<svg id="b"
    xmlns="http://www.w3.org/2000/svg" viewBox="0 0 356.6 214.79">
    <defs>
        <style>.h{fill:currentColor;}.i{fill:#fff;}.j{fill:#1d1d1b;}</style>
    </defs>
    <g id="c">
        <g id="d">
            <g id="e">
                <path class="h" d="m0,213.01V1.78h29.72v90.49h36.72V1.78h29.72v211.23h-29.72v-94.04H29.72v94.04H0Z"/>
                <path class="h" d="m0,213.01V1.78h29.72v90.49h36.72V1.78h29.72v211.23h-29.72v-94.04H29.72v94.04H0Z"/>
                <path class="h" d="m206.56,66.28c5.42,0,10.18-.96,14.15-2.86,3.97-1.89,7.32-4.47,9.83-7.53,2.73-3.03,4.8-6.51,6.15-10.35,1.34-3.78,2.02-7.65,2.02-11.51s-.68-7.73-2.02-11.51c-1.35-3.82-3.4-7.33-6.09-10.44-2.63-3.06-5.96-5.56-9.9-7.44-3.98-1.9-8.74-2.86-14.15-2.86h-60.01c-5.18,0-9.87.95-13.95,2.84-4.04,1.87-7.47,4.36-10.32,7.53-2.56,3.1-4.53,6.59-5.88,10.38-1.34,3.78-2.02,7.65-2.02,11.51s.68,7.73,2.02,11.51c1.35,3.8,3.34,7.26,5.94,10.29,2.01,2.32,4.41,4.31,7.15,5.96l-14.15-2.14v26.75l48.3,5.21-48.3,8.81v20.16l47.04,8.47-47.04,5.4v78.57h24.09v-19.17h98.32v-25.5h-98.32v-10.83l98.32-14.9v-23.23l-52.57-8.92,52.57-9.03v-23.23l-78.63-11.92h47.43Zm-67.12-32.25c0-1.98.55-3.56,1.74-4.98.99-1.17,2.79-1.77,5.36-1.77h60.01c2.58,0,4.38.59,5.36,1.77,1.19,1.42,1.74,3,1.74,4.98s-.55,3.56-1.75,4.98c-.98,1.17-2.78,1.76-5.36,1.76h-60.01c-2.58,0-4.38-.59-5.36-1.77-1.19-1.42-1.75-3-1.75-4.98Z"/>
                <path class="h" d="m206.56,66.28c5.42,0,10.18-.96,14.15-2.86,3.97-1.89,7.32-4.47,9.83-7.53,2.73-3.03,4.8-6.51,6.15-10.35,1.34-3.78,2.02-7.65,2.02-11.51s-.68-7.73-2.02-11.51c-1.35-3.82-3.4-7.33-6.09-10.44-2.63-3.06-5.96-5.56-9.9-7.44-3.98-1.9-8.74-2.86-14.15-2.86h-60.01c-5.18,0-9.87.95-13.95,2.84-4.04,1.87-7.47,4.36-10.32,7.53-2.56,3.1-4.53,6.59-5.88,10.38-1.34,3.78-2.02,7.65-2.02,11.51s.68,7.73,2.02,11.51c1.35,3.8,3.34,7.26,5.94,10.29,2.01,2.32,4.41,4.31,7.15,5.96l-14.15-2.14v26.75l48.3,5.21-48.3,8.81v20.16l47.04,8.47-47.04,5.4v78.57h24.09v-19.17h98.32v-25.5h-98.32v-10.83l98.32-14.9v-23.23l-52.57-8.92,52.57-9.03v-23.23l-78.63-11.92h47.43Zm-67.12-32.25c0-1.98.55-3.56,1.74-4.98.99-1.17,2.79-1.77,5.36-1.77h60.01c2.58,0,4.38.59,5.36,1.77,1.19,1.42,1.74,3,1.74,4.98s-.55,3.56-1.75,4.98c-.98,1.17-2.78,1.76-5.36,1.76h-60.01c-2.58,0-4.38-.59-5.36-1.77-1.19-1.42-1.75-3-1.75-4.98Z"/>
                <path class="h" d="m256.93,51.62c0-8.5,1.46-16.02,4.37-22.55,2.91-6.53,6.8-11.96,11.66-16.32,4.66-4.16,9.95-7.32,15.88-9.49,5.93-2.17,11.9-3.26,17.92-3.26s11.99,1.09,17.92,3.26c5.92,2.18,11.31,5.34,16.17,9.49,4.66,4.35,8.45,9.79,11.36,16.32,2.91,6.53,4.37,14.05,4.37,22.55v111.55c0,8.9-1.46,16.52-4.37,22.85-2.91,6.33-6.7,11.57-11.36,15.72-4.86,4.35-10.25,7.61-16.17,9.79-5.93,2.18-11.9,3.26-17.92,3.26s-12-1.09-17.92-3.26c-5.93-2.18-11.22-5.44-15.88-9.79-4.86-4.16-8.74-9.39-11.66-15.72-2.91-6.33-4.37-13.94-4.37-22.85V51.62Zm29.73,111.55c0,7.32,1.99,12.71,5.97,16.17,3.98,3.46,8.69,5.19,14.13,5.19s10.15-1.73,14.13-5.19c3.98-3.46,5.97-8.85,5.97-16.17V51.62c0-7.31-1.99-12.71-5.97-16.17-3.98-3.46-8.7-5.19-14.13-5.19s-10.15,1.74-14.13,5.19c-3.99,3.46-5.97,8.85-5.97,16.17v111.55Z"/>
                <path class="h" d="m256.93,51.62c0-8.5,1.46-16.02,4.37-22.55,2.91-6.53,6.8-11.96,11.66-16.32,4.66-4.16,9.95-7.32,15.88-9.49,5.93-2.17,11.9-3.26,17.92-3.26s11.99,1.09,17.92,3.26c5.92,2.18,11.31,5.34,16.17,9.49,4.66,4.35,8.45,9.79,11.36,16.32,2.91,6.53,4.37,14.05,4.37,22.55v111.55c0,8.9-1.46,16.52-4.37,22.85-2.91,6.33-6.7,11.57-11.36,15.72-4.86,4.35-10.25,7.61-16.17,9.79-5.93,2.18-11.9,3.26-17.92,3.26s-12-1.09-17.92-3.26c-5.93-2.18-11.22-5.44-15.88-9.79-4.86-4.16-8.74-9.39-11.66-15.72-2.91-6.33-4.37-13.94-4.37-22.85V51.62Zm29.73,111.55c0,7.32,1.99,12.71,5.97,16.17,3.98,3.46,8.69,5.19,14.13,5.19s10.15-1.73,14.13-5.19c3.98-3.46,5.97-8.85,5.97-16.17V51.62c0-7.31-1.99-12.71-5.97-16.17-3.98-3.46-8.7-5.19-14.13-5.19s-10.15,1.74-14.13,5.19c-3.99,3.46-5.97,8.85-5.97,16.17v111.55Z"/>
            </g>
            <g id="f">
                <path class="j" d="m304.3,164.58c-11.12,0-21.29-2.57-30.31-7.65v6.95h-33.6l-15.67-25.43v25.43h-40.43v-13.53c-2.26,2.49-4.91,4.78-7.91,6.85-6.53,4.66-14.62,7.15-23.99,7.38h-.58c-9.33-.22-17.42-2.73-24.04-7.46-4.63-3.15-8.44-6.86-11.34-11.04-2.26,3.41-4.95,6.42-8.04,8.99-7.9,6.33-17.15,9.52-27.53,9.52h-.14c-9.42-.23-17.53-2.74-24.14-7.47-2.88-1.96-5.44-4.14-7.67-6.51v13.28H8.5V50.91h40.43v13.26c2.24-2.4,4.83-4.63,7.76-6.67,6.55-4.71,14.66-7.18,24.03-7.29,11.8.11,21.61,3.86,29.25,11.14,2.4,2.31,4.52,4.82,6.34,7.51,2.92-4.25,6.8-8.07,11.57-11.39,6.56-4.69,14.65-7.15,24.01-7.26,9.68.11,17.94,2.59,24.65,7.38,2.93,2.08,5.52,4.36,7.74,6.83v-13.5h33.54l15.73,25.49v-25.49h40.43v10.72c.23-.23.46-.45.69-.67,7.18-7,17.02-10.63,29.21-10.74h.32c13.25.3,24.95,4.19,34.84,11.54l10.59,7.87-16.98,25.86c2.21,1.69,4.19,3.63,5.92,5.79,5.66,7.05,8.53,15.33,8.53,24.59v.3c-.61,23.75-16.57,38.1-42.7,38.43h-.08s-.02,0-.02,0Zm-152.81-40.82c.1.01.28.03.54.03.46,0,.69-.04.77-.06l.31-.17c.17-.09.27-.15.32-.18l.36-.5.36-.4c.05-.12.15-.39.25-.87.09-.45.57-3.52.57-14.21s-.47-13.79-.61-14.55c-.04-.2-.12-.38-.16-.48l-.4-.45-.44-.62h0s-.04-.04-.14-.1c-.19-.06-.56-.15-1.18-.19-.74.05-1.03.17-1.04.17-.4.22-.55.4-.58.44l-.34.46-.18.2c-.03.1-.08.27-.12.53-.21,1.07-.68,4.52-.68,14.6s.48,13.5.62,14.22c.09.51.17.81.22.96l.13.14.33.44s.1.08.37.22l.5.26.21.13Zm-71.18,0c.1.01.28.03.54.03.65,0,1.46,0,2.97-3.36l3.71-8.27h21.17c-.02-1.52-.03-3.11-.03-4.77,0-1.4,0-2.76.02-4.07h-22.55l-2.97-10c-.25-.83-.61-1.47-1.21-2.07-.16-.09-.47-.2-1.08-.24-.76.05-1.07.17-1.07.17-.39.21-.54.39-.58.44l-.33.44-.18.21c-.03.1-.08.27-.12.53-.21,1.07-.68,4.51-.68,14.6s.48,13.49.62,14.21c.09.51.18.82.23.97l.13.14.33.44s.1.08.37.22l.49.25.22.14Zm193.68-7.86l.06-.07s-.04-.04-.06-.06v.13Z"/>
            </g>
            <g id="g">
                <rect class="i" x="16.5" y="58.91" width="24.43" height="96.97"/>
                <path class="i" d="m271.17,89.05c0,7.66,2.42,14.29,7.19,19.7,4.6,5.24,11.21,8.63,19.78,10.08,3.92.58,7.53,1.1,10.83,1.57,5.68,1.04,5.7,3.5,5.7,5.39v.02c-.04,2.18-.11,5.83-10.25,5.98-7.67-.07-14.07-2.37-19.58-7.05l-4.57-3.89-14.29,16.92V58.91h-24.43v45.69l-28.19-45.69h-21.07v96.97h24.43v-45.66l28.13,45.66h21.13v-14.91l2.85,2.51c9.85,8.69,21.76,13.1,35.47,13.1,12.71-.16,34.13-4.34,34.8-30.57v-.15c0-7.4-2.28-14-6.78-19.6-4.66-5.84-11.71-9.47-21.03-10.78-3.81-.49-6.84-.93-8.9-1.28-3.61-.69-5.04-1.77-5.61-2.4-1.03-1.1-1.16-1.92-1.17-2.47.05-2.88.99-3.97,1.81-4.6,1.5-1.16,3.44-1.72,5.81-1.72,6.3.13,11.91,1.93,17.16,5.51l5.03,3.42,13.39-20.39-4.53-3.37c-8.54-6.35-18.67-9.7-30.12-9.96h-.19c-10.06.09-18.07,2.98-23.76,8.54-5.99,5.7-9.02,13.21-9.02,22.31Z"/>
                <path class="i" d="m115.64,127.49l1.34-5.84c.15,2.68.35,4.84.61,6.43.37,2.23.84,4.09,1.43,5.68l.09.21c.52,1.24,1.1,2.54,1.74,3.9l.08.17c2.44,4.8,6.31,9.03,11.51,12.57,5.29,3.78,11.84,5.79,19.48,5.97h.29c7.74-.19,14.36-2.21,19.63-5.96,5.03-3.48,8.79-7.62,11.16-12.31,1.76-2.73,2.96-6.2,3.61-10.36.53-3.74.79-10.46.79-20.55s-.26-17.02-.81-20.76c-.63-4.02-1.84-7.43-3.59-10.16-2.37-4.67-6.1-8.84-11.1-12.38-5.36-3.82-12.01-5.8-19.91-5.89-7.69.09-14.29,2.07-19.54,5.83-5.14,3.57-8.97,7.76-11.42,12.47-1.58,2.69-2.7,5.95-3.43,10.03-.32,1.9-.55,4.61-.71,8.18l-1.2-6.47c-1.55-8.32-5.32-15.42-11.24-21.11-6.12-5.83-14.02-8.83-23.63-8.93-7.7.09-14.3,2.08-19.56,5.86-5.14,3.58-8.98,7.79-11.42,12.5-1.58,2.68-2.7,5.94-3.43,10.01-.63,3.71-.93,10.52-.93,20.82s.3,16.9.93,20.68c.37,2.23.84,4.09,1.43,5.68l.09.21c.52,1.24,1.1,2.54,1.74,3.9l.08.16c2.44,4.8,6.31,9.03,11.5,12.57,5.29,3.78,11.85,5.79,19.63,5.98,8.52,0,16.03-2.56,22.41-7.67,6.09-5.07,10.25-12.27,12.35-21.42Zm47.33-20.09c0,9.91-.4,14.11-.73,15.81-.39,1.9-1.05,3.39-1.95,4.41l-.21.24-.19.26c-.7.98-1.64,1.78-2.89,2.44l-.24.13c-1.26.74-2.81,1.1-4.72,1.1s-3.3-.34-4.47-1.05l-.2-.12-.21-.11c-1.34-.68-2.36-1.5-3.13-2.53l-.14-.19-.16-.18c-.87-.99-1.48-2.42-1.84-4.41-.36-1.76-.78-5.93-.78-15.81s.43-14.14.81-16.04c.33-1.81.93-3.17,1.82-4.18l.16-.18.14-.19c.81-1.07,1.88-1.96,3.24-2.7,1.24-.66,2.84-1.03,4.76-1.1,1.94.07,3.59.43,4.91,1.09,1.26.73,2.22,1.57,2.94,2.58l.19.26.21.24c.92,1.03,1.58,2.49,1.93,4.2.34,1.83.75,6.1.75,16.02Zm-70.86-12.07h24.76c-.13,3.31-.2,7.3-.2,12.07,0,5.09.08,9.33.23,12.77h-24.19l-1.58,3.54c-3.21,7.17-7.17,8.09-10.27,8.09-1.84,0-3.31-.34-4.47-1.05l-.2-.12-.21-.11c-1.34-.68-2.36-1.51-3.13-2.53l-.14-.19-.16-.18c-.87-.99-1.48-2.42-1.84-4.41-.36-1.76-.79-5.93-.79-15.81s.43-14.14.81-16.04c.33-1.81.93-3.18,1.82-4.18l.16-.18.14-.19c.8-1.07,1.88-1.96,3.24-2.7,1.24-.66,2.85-1.04,4.78-1.1,2.52.07,4.57.76,6.26,2.12,1.81,1.66,3.02,3.6,3.71,5.93l1.27,4.28Z"/>
            </g>
        </g>
    </g>
</svg>