<?xml version="1.0" encoding="UTF-8"?><svg id="b" xmlns="http://www.w3.org/2000/svg" viewBox="0 0 23 20.46"><g><path d="m15.16,10.32v1.56s0,.02,0,.03c0,.05,0,.08.04.12.02.01.03.02.05.02.07-.13.14-.26.21-.39v-2.86c-.07-.13-.15-.27-.22-.4-.01,0-.03,0-.04.02-.03.04-.05.08-.04.12,0,.01,0,.02,0,.03v1.58s.03.06.04.08c-.01.03-.03.05-.04.08Z"/><path d="m21.68,10.23c0-1.43-1.67-2.66-4.27-3.41.1-.4.19-.8.25-1.17.34-2.14-.04-3.64-1.07-4.24-1.24-.71-3.14.12-5.09,2-1.95-1.88-3.85-2.71-5.09-2-1.03.59-1.41,2.1-1.07,4.24.06.38.15.77.25,1.17-2.6.75-4.27,1.98-4.27,3.41s1.68,2.66,4.28,3.41c-.65,2.63-.42,4.7.81,5.41.3.17.63.25,1,.25,1.16,0,2.61-.83,4.09-2.26,1.48,1.43,2.94,2.26,4.09,2.26.37,0,.7-.08,1-.25,1.23-.71,1.47-2.78.81-5.41,2.6-.75,4.28-1.98,4.28-3.41ZM15.57,2.04c.22,0,.42.05.58.14.68.39.91,1.61.64,3.33-.06.35-.14.72-.23,1.09-.83-.19-1.74-.33-2.71-.42-.56-.79-1.14-1.51-1.72-2.13,1.34-1.3,2.59-2.01,3.45-2.01Zm-4.07,2.64c.39.43.79.9,1.18,1.42-.39-.02-.78-.03-1.18-.03s-.79.01-1.18.03c.39-.52.79-1,1.18-1.42Zm-4.65-2.49c.16-.1.36-.14.58-.14.86,0,2.1.7,3.45,2.01-.58.63-1.16,1.34-1.72,2.13-.97.09-1.88.23-2.71.42-.09-.37-.18-.74-.23-1.09-.28-1.72-.04-2.94.63-3.33Zm0,16.1c-.8-.46-.97-2.14-.4-4.42.83.19,1.74.33,2.71.42.56.79,1.14,1.51,1.72,2.13-1.69,1.63-3.23,2.32-4.03,1.87Zm3.46-3.92c.39.02.78.03,1.18.03s.8-.01,1.18-.03c-.39.52-.79.99-1.18,1.42-.39-.43-.79-.9-1.18-1.42Zm5.83,3.92c-.8.46-2.34-.23-4.03-1.87.58-.63,1.16-1.34,1.72-2.13.97-.09,1.87-.23,2.71-.42.57,2.28.4,3.96-.4,4.42Zm1.02-5.49s-.03-.1-.05-.15c-.01.04-.03.07-.04.11-.1.23-.25.44-.45.62-.18.17-.39.29-.63.38-.21.08-.44.12-.68.12s-.47-.04-.69-.13c-.26-.1-.47-.23-.63-.39-.12-.11-.23-.24-.32-.39-.02.06-.06.11-.11.16-.07.11-.14.21-.21.32-.59.04-1.21.07-1.85.07-.25,0-.49,0-.73-.01-.05.19-.22.33-.43.33h-.72c-.11,0-.21-.04-.29-.11-.08.06-.17.09-.27.09h-.88c-.25,0-.45-.2-.45-.45v-.15c-.07-.01-.13-.02-.2-.03v.18c0,.25-.2.45-.45.45h-.88c-.25,0-.45-.2-.45-.45v-.6c-2.21-.65-3.55-1.62-3.55-2.53s1.34-1.89,3.55-2.53v-.61c0-.25.2-.45.45-.45h.88c.25,0,.45.2.45.45v.2c.06-.01.13-.02.2-.03v-.16c0-.25.2-.45.45-.45h.88c.24,0,.44.19.45.44.12-.13.27-.24.44-.32.2-.08.4-.12.6-.12h1.75s.06,0,.09,0c.19,0,.37.04.54.13.13.06.26.15.37.26.02,0,.03,0,.05,0,.11.16.21.32.32.48.1-.16.22-.31.35-.42.16-.15.36-.27.59-.36.22-.08.45-.13.69-.13s.47.04.69.13c.24.08.44.21.63.37.21.21.35.41.45.64.01.03.03.07.04.1.02-.05.04-.11.05-.16,2.26.65,3.63,1.63,3.63,2.56s-1.37,1.91-3.63,2.56Z"/><path d="m7.74,11.02h-.2v.64c.06.12.13.24.2.36v-1Z"/><path d="m7.54,9.32h.2v-.88c-.07.12-.13.24-.2.36v.52Z"/></g><g><path d="m6.21,13.36v-6.27h.88v2.68h1.09v-2.68h.88v6.27h-.88v-2.78h-1.09v2.78h-.88Z"/><path d="m12.33,9c.14,0,.29-.03.42-.08.12-.05.21-.13.29-.23.08-.09.14-.2.18-.3.08-.22.08-.47,0-.69-.04-.12-.1-.22-.18-.31-.08-.09-.18-.17-.3-.22-.13-.07-.27-.09-.42-.08h-1.77c-.14,0-.29.03-.42.08-.12.05-.22.13-.3.22-.08.09-.13.2-.17.31-.04.1-.07.22-.07.34s.03.23.07.34.1.21.17.3c.07.07.13.13.21.18l-.42-.07v.79l1.43.16-1.43.26v.6l1.39.27-1.39.17v2.33h.72v-.57h2.91v-.75h-2.91v-.33l2.91-.44v-.69l-1.56-.26,1.56-.27v-.69l-2.33-.35h1.4Zm-1.99-.96c0-.05.01-.1.05-.14.04-.04.1-.07.16-.05h1.78c.07,0,.12.01.16.05s.05.09.05.14-.01.1-.05.14c-.04.04-.1.05-.16.05h-1.78c-.05,0-.12-.01-.16-.05-.04-.04-.05-.09-.05-.14Z"/><path d="m13.83,8.57c0-.23.04-.46.13-.66.08-.18.2-.35.35-.48.14-.13.3-.22.47-.29.34-.13.72-.13,1.07,0,.18.07.34.16.48.29.14.14.26.3.34.48.09.21.13.44.13.66v3.32c0,.23-.04.47-.13.68-.08.18-.2.34-.34.47s-.3.22-.48.29c-.34.13-.72.13-1.07,0-.17-.07-.34-.16-.47-.29-.14-.13-.26-.29-.35-.47-.09-.21-.13-.44-.13-.68,0,0,0-3.32,0-3.32Zm.88,3.3c-.01.18.05.35.18.48.25.21.6.21.83,0,.13-.13.2-.3.18-.48v-3.3c.01-.18-.05-.35-.18-.48-.25-.21-.6-.21-.83,0-.13.13-.2.3-.18.48v3.3Z"/></g></svg>