<?xml version="1.0" encoding="utf-8"?>
<svg version="1.1"
    xmlns="http://www.w3.org/2000/svg"
    xmlns:xlink="http://www.w3.org/1999/xlink" viewBox="0 0 81.3 49" class="site-logo">

    <path d="M0,48.6V0.4h6.8v20.6h8.4V0.4h6.8v48.2h-6.8V27.2H6.8v21.4H0z"/>
    <path d="M0,48.6V0.4h6.8v20.6h8.4V0.4h6.8v48.2h-6.8V27.2H6.8v21.4H0z"/>
    <path d="M47.1,15.1c1.1,0,2.2-0.2,3.2-0.6c0.9-0.4,1.6-1,2.2-1.8c0.6-0.7,1.1-1.5,1.4-2.3c0.6-1.7,0.6-3.6,0-5.3
		c-0.3-0.9-0.8-1.7-1.4-2.4c-0.6-0.7-1.4-1.3-2.3-1.7c-1-0.5-2.1-0.7-3.2-0.6H33.4c-1.1,0-2.2,0.2-3.2,0.6c-0.9,0.4-1.7,1-2.3,1.7
		c-0.6,0.7-1,1.5-1.3,2.4c-0.3,0.8-0.5,1.7-0.5,2.6c0,0.9,0.2,1.8,0.5,2.6c0.3,0.8,0.8,1.6,1.3,2.3c0.5,0.5,1,1,1.6,1.4l-3.2-0.5
		v6.1l11,1.2l-11,2v4.6L37,29.5l-10.7,1.3v17.9h5.5v-4.4h22.4v-5.8H31.8V36l22.4-3.4v-5.3l-12-2l12-2.1v-5.3l-17.9-2.7H47.1z
		 M31.8,7.8c0-0.4,0.1-0.8,0.4-1.1c0.3-0.3,0.8-0.5,1.2-0.4h13.7c0.5,0,0.9,0.1,1.2,0.4c0.3,0.3,0.4,0.7,0.4,1.1
		c0,0.4-0.1,0.8-0.4,1.1c-0.3,0.3-0.8,0.4-1.2,0.4H33.4c-0.4,0-0.9-0.1-1.2-0.4C31.9,8.6,31.8,8.2,31.8,7.8z"/>
    <path d="M58.6,11.8c0-1.8,0.3-3.5,1-5.1c0.6-1.4,1.5-2.7,2.7-3.7c1.1-1,2.3-1.7,3.6-2.2c2.6-1,5.5-1,8.2,0c1.4,0.5,2.6,1.2,3.7,2.2
		c1.1,1.1,2,2.3,2.6,3.7c0.7,1.6,1,3.4,1,5.1v25.5c0,1.8-0.3,3.6-1,5.2c-0.6,1.4-1.5,2.6-2.6,3.6c-1.1,1-2.3,1.7-3.7,2.2
		c-2.6,1-5.5,1-8.2,0c-1.3-0.5-2.6-1.2-3.6-2.2c-1.1-1-2-2.2-2.7-3.6c-0.7-1.6-1-3.4-1-5.2V11.8z M65.4,37.2
		c-0.1,1.4,0.4,2.7,1.4,3.7c1.9,1.6,4.6,1.6,6.4,0c1-1,1.5-2.3,1.4-3.7V11.8c0.1-1.4-0.4-2.7-1.4-3.7c-1.9-1.6-4.6-1.6-6.4,0
		c-1,1-1.5,2.3-1.4,3.7V37.2z"/>
    <path d="M58.6,11.8c0-1.8,0.3-3.5,1-5.1c0.6-1.4,1.5-2.7,2.7-3.7c1.1-1,2.3-1.7,3.6-2.2c2.6-1,5.5-1,8.2,0c1.4,0.5,2.6,1.2,3.7,2.2
		c1.1,1.1,2,2.3,2.6,3.7c0.7,1.6,1,3.4,1,5.1v25.5c0,1.8-0.3,3.6-1,5.2c-0.6,1.4-1.5,2.6-2.6,3.6c-1.1,1-2.3,1.7-3.7,2.2
		c-2.6,1-5.5,1-8.2,0c-1.3-0.5-2.6-1.2-3.6-2.2c-1.1-1-2-2.2-2.7-3.6c-0.7-1.6-1-3.4-1-5.2V11.8z M65.4,37.2
		c-0.1,1.4,0.4,2.7,1.4,3.7c1.9,1.6,4.6,1.6,6.4,0c1-1,1.5-2.3,1.4-3.7V11.8c0.1-1.4-0.4-2.7-1.4-3.7c-1.9-1.6-4.6-1.6-6.4,0
		c-1,1-1.5,2.3-1.4,3.7V37.2z"/>
</svg>
