<svg xmlns="http://www.w3.org/2000/svg" id="b" viewBox="0 0 442.46 442.46">
    <defs>
    </defs>
    <g id="c">
        <path d="M232.61 22.48c.49-5.44-7.97-5.86-7.96-.38-.47 5.41 7.96 5.89 7.96.38ZM33.01 297.72l1.09 2.64 3.49-1.43-1.09-2.66c-1.03-2.96-4.87-1.28-3.48 1.45ZM103.32 385l4.02-2.55-2.85-2.05-1.17 4.6zm-52.13-60.33c-4.76 2.7-.29 9.89 4.21 6.76 4.72-2.69.31-9.9-4.21-6.76ZM262.25 23.55l-2.62 3.97 3.43.71-.81-4.68zm40.12 15.9c2.4-4.94-5.41-8.32-7.32-3.15-2.31 4.88 5.37 8.27 7.32 3.15ZM215.01 424.3l2.86.08.1-3.77-2.88-.08c-3.13-.26-3.14 3.93-.08 3.77Zm-84.15-21.14 2.56 1.27 1.67-3.38-2.58-1.28c-2.73-1.54-4.5 2.25-1.65 3.39ZM24.3 271.6l.51 1.99 4-1.03-.52-2.01c-.67-3.23-5.06-2.08-3.99 1.05ZM152.34 30.17l2.6 7.53c8.14-1.44 4.67-11.4-2.6-7.53ZM34.88 155.91l1.19-3.3-4.74.14 3.55 3.16zm68.24-89.43c2.26-1.55.4-4.14-1.79-2.25l-2.61 2.02 1.76 2.28 2.65-2.05Zm-3.33-6.68c-1.06-1.59-3.57 1.22-4.61 1.87l1.68 2.17c.95-.87 4.27-2.6 2.94-4.04Zm-10.9 15.01-4.27-2.08 1.69 4.45 2.58-2.37zM22.31 211.33c5.39.64 6.14-7.77.64-7.94-5.43-.66-6.11 7.78-.64 7.94ZM125.8 48.4l-3.69-2.99.64 4.72 3.05-1.73zM20.7 188.52l-.45 2.82 3.72.6.45-2.84c.66-3.07-3.49-3.63-3.73-.57Zm-1.81 51.06.26 2.84 3.75-.35-.27-2.87c-.12-3.14-4.28-2.65-3.75.37Zm344.5-151.33c1.77 2.1 4.16-.02 2.06-2.01l-2.27-2.4-2.09 1.98 2.3 2.43Zm46.95 195.51c-5.02-2.07-8 5.84-2.74 7.48 5.05 2.09 7.97-5.86 2.74-7.48Zm-2.32-139.09-4.76.05 1.33 3.24 3.43-3.29zm-1.14 158.9-7.23-3.34c-4.6 6.87 4.98 11.27 7.23 3.34Zm8.5-142.25-.85-2.73-3.6 1.12.86 2.75c.77 3.04 4.74 1.7 3.59-1.15Zm-134.96 254.2-2.22-7.65c-8.2 1.02-5.24 11.15 2.22 7.65Zm92.04-58.76 1.9-2.13-2.81-2.51-1.92 2.15c-2.22 2.22.98 4.94 2.83 2.49Z" class="d"/>
        <path d="M376.79 65.67C164.96-133.78-133.76 165.05 65.67 376.8c211.82 199.44 510.55-99.39 311.12-311.13Zm50.31 134.74-7.69 7.1 8.23-.69.36 4.27-15.56 1.31-.32-3.76 7.97-7.39-8.54.72-.36-4.27 15.56-1.31.34 4.02Zm-.96-7.87-15.44 2.32-.64-4.28 15.45-2.32.64 4.28Zm-3.46-18.63-6.7 8.04 8.07-1.76.91 4.19-15.26 3.32-.8-3.68 6.95-8.36-8.37 1.82-.91-4.19 15.26-3.32.86 3.95Zm-3.76-8.14c-1.51 3.08-6.7 3.63-8.66.79l-4.09 5.18-1.48-4.75 3.58-4.41-.57-1.83-4.52 1.41-1.29-4.13 14.91-4.66c.71 2.97 3.93 9.77 2.12 12.41Zm-5.34-21.07-12.03 12.13-1.76-4.29 2.18-2.1-2.3-5.59-3.03.04-1.72-4.19 17.07.15 1.59 3.86Zm-15.65-31.66 2.16 4.03-6.68 6.67 9.43-1.64 1.76 3.28-6.58 6.95 9.25-1.87 2.12 3.95-16.33 2.83-1.78-3.32 6.45-7-9.41 1.48-1.78-3.32 11.4-12.04Zm-17.88-13.46 4.35 5.89-2.98 2.2-4.35-5.89 2.98-2.2ZM221.24 401.24c-236.56-4.24-236.52-355.79 0-360 236.55 4.24 236.51 355.79 0 360Zm153.2-316.96c0 2.56-3.24 4.39-5.38 3.15 2.5 5.04-4.05 8.46-7.87 3.57l-5.54-5.86L367 74.41c1.7 2.18 7.78 6.94 7.43 9.87Zm-17.82-19.4c-1.3 2.3-9.64 8.03-5.84 10.88 3.28 3.54 8.02-5.51 10.15-7.03l3.27 2.91-5.76 6.46c-5.92 7.72-17.85-2.82-10.92-9.58l5.83-6.55 3.27 2.91Zm-17.78-13.92 3.47 2.58-3.49 4.69 4.46 3.32 3.49-4.69 3.47 2.58-9.32 12.53-3.47-2.58 3.54-4.76-4.46-3.32-3.54 4.76-3.47-2.58 9.32-12.53Zm-22.65-13.53 1.74 10.32 3.92-7.27 3.77 2.03-7.41 13.75-3.32-1.79-1.82-10.72-4.07 7.54-3.77-2.03 7.41-13.75 3.55 1.92Zm-9.7 3.68c-3.77 9.83-19.93 3.12-15.52-6.49 3.77-9.84 19.93-3.12 15.52 6.49ZM291 26.45l-5.13 14.75-4.09-1.42 5.13-14.75 4.09 1.42Zm-19.53-6.05 13.15 3.76-1.04 3.65-4.51-1.29-3.25 11.37-4.16-1.19 3.25-11.37-4.48-1.28 1.04-3.65Zm-6.1-1.44 3.32 16.76-4.54-.94-.52-2.98-5.92-1.23-1.66 2.53-4.44-.92 9.68-14.06 4.09.85Zm-22.06-3.47 2.3 10.24 4.76-9.37 4.69.58-8.22 14.83-3.98-.49-4.33-16.39 4.78.59Zm-23.07 6.54c.02-10.53 17.51-10.02 16.81.53-.02 10.53-17.51 10.02-16.81-.53Zm-13.87-7.18 6.87 7.89-.46-8.24 4.28-.24.87 15.59-3.77.21-7.16-8.18.47 8.55-4.28.24-.87-15.59 4.03-.22Zm-18.81 2.21 7.57 7.23-1.21-8.17 4.24-.63 2.29 15.46-3.73.55-7.88-7.5 1.25 8.48-4.24.63-2.29-15.46 4-.59Zm-7.79 1.45 3.29 15.27-4.23.91-3.29-15.27 4.23-.91Zm-16.22 11.92c2.86 7.11-5.31 10.76-11.44 12.31L147 27.98c5.72-2.48 14.38-4.91 16.55 2.45Zm-30.23 3.51 9.26 4.88-3.4-7.53 3.91-1.76 6.43 14.24-3.44 1.55-9.63-5.05 3.53 7.81-3.91 1.76-6.43-14.24 3.68-1.66Zm-11.89 5.97 13.53 10.42-4.04 2.29-2.36-1.9-5.26 2.98.41 3-3.94 2.23-1.98-16.96 3.63-2.05ZM100.27 55.1c2.54.25 4.04 3.65 2.6 5.66 5.26-1.99 8.01 4.87 2.77 8.18l-6.37 4.93-9.55-12.36c2.34-1.47 7.67-7.05 10.56-6.41ZM82.71 67.53l15.54 7.07-3.42 3.14-2.72-1.31-4.45 4.09 1.08 2.82-3.33 3.07-5.77-16.06 3.07-2.82Zm-14.4 14.5L77 90.04l5.13-5.56 2.79 2.57-8.06 8.74-11.48-10.58 2.93-3.18Zm-6.78 18.71 2.99 2.18-4.31 5.92-2.99-2.18 4.31-5.92Zm-17.71 13.95 3.19 1.79-4.05 7.22 2.08 1.17 3.67-6.54 2.98 1.67-3.67 6.54 2.16 1.21 4.1-7.32 3.21 1.8-6.2 11.06-13.63-7.64 6.14-10.96Zm-4.9 14.82.93 4.01c-3.89.61-4.68 5.94-.83 7.48 3.81 1.95 7.2-2.34 5.09-5.64l3.47-1.99c4.13 5.97-3.14 15.47-10.37 11.69-7.32-2.71-5.48-14.54 1.71-15.54Zm-11.7 19.5 17.06-.89-1.58 4.36-3.02.09-2.06 5.69 2.26 2.01-1.54 4.26-12.53-11.59 1.42-3.92Zm-7.33 24.42 6.78-2.1-4.93-5.11 1.14-4.43L38 165.68l-1.07 4.17-8.69-2.23 4.93 5.39-.02.09-6.89 2.33 8.66 2.23-1.06 4.1-15.12-3.89 1.14-4.43Zm-.38 9.55c2.72-2.09 7.61-.27 8.11 3.15l5.96-2.82-.79 4.91-5.17 2.36-.3 1.9 4.67.75-.68 4.27-15.42-2.47c.68-2.98.83-10.5 3.62-12.05Zm3.66 15.98c10.53.36 9.45 17.83-1.07 16.79-10.53-.36-9.45-17.83 1.07-16.79Zm-8.91 18.5 3.79-.06.13 8.17 2.65-.04-.12-7.38 3.59-.06.12 7.38 5.58-.09.07 4.33-15.62.26-.21-12.49Zm2.11 17.05c2.12-2.7 7.31-2.15 8.63 1.04l5.08-4.21.46 4.96-4.42 3.57.18 1.91 4.71-.44.4 4.31-15.55 1.44c-.08-3.05-1.8-10.37.52-12.57Zm-.01 16.31 3.6-.64 1.44 8.15 2.35-.41-1.3-7.38 3.36-.59 1.3 7.38 2.44-.43-1.46-8.26 3.63-.64 2.2 12.48-15.38 2.71-2.18-12.37Zm4.35 21.37c-2.15-10.38 10.83-10.28 11.4-.46l4.32-1.11 1.08 4.19-15.12 3.89-1.67-6.5Zm8.41 21.43c1.24-3.2 6.36-4.2 8.56-1.54l3.62-5.52 1.89 4.6-3.18 4.71.73 1.78 4.38-1.8 1.65 4-14.45 5.94c-.97-2.9-4.77-9.39-3.19-12.18Zm9.5 24.81c2.04-1.69 11.87-4.05 9.34-8.07-1.79-4.48-9.46 2.27-12 2.93l-2.01-3.88 7.69-3.97c8.29-5.09 15.65 9.02 6.76 12.85l-7.79 4.02-2.01-3.88Zm10.12 2.55c8.67-5.98 18.21 8.71 9.13 14.14-8.68 5.98-18.21-8.71-9.13-14.14Zm16.85 21.09-4.17 10.66-2.98-3.92 2.58-6-6.49.87-2.93-3.85 11.32-1.15 4.71-3.58 2.62 3.45-4.65 3.54Zm4.94 20.92 2.58-2.59 5.86 5.85 1.69-1.69-5.31-5.3 2.41-2.42 5.31 5.3 1.75-1.75-5.94-5.93 2.6-2.61 8.97 8.95-11.03 11.06-8.89-8.88Zm24.15 15.85c-3.53 4.65-10.98-1.24-11.4-5.87l3.63-.91c.42 1.71 1.27 3.12 2.32 4.02 2.17 1.45 2.92-.33.79-2.7-2.2-2.92-3.14-5.25-1.24-7.47 4.11-5.01 11.66 1.87 12 6.95l-3.7.62c-.35-2.07-2.53-6.37-4.72-5.05-.66 2.82 5.99 6.86 2.32 10.42Zm3.93 9.09 3.82-16.65 3.76 2.72-.74 2.93 4.9 3.54 2.55-1.63 3.67 2.65-14.58 8.88-3.38-2.44Zm10.87 7.47 1.88-3.14 7.1 4.26 1.23-2.05-6.43-3.86 1.76-2.93 6.43 3.86 1.28-2.12-7.19-4.32 1.9-3.16 10.87 6.53-8.04 13.39-10.77-6.47Zm15.74 7.26c-1.18-3.22 2-7.35 5.41-6.8l-.92-6.53 4.46 2.21.72 5.63 1.72.85 2.1-4.24 3.88 1.92-6.93 13.99c-2.64-1.53-9.78-3.91-10.43-7.03Zm14.23 5.57 3.96-1.15c.82 3.85 6.18 4.36 7.51.43 1.74-3.91-2.72-7.06-5.91-4.78l-2.18-3.36c5.74-4.45 15.62 2.31 12.23 9.73-2.31 7.45-14.23 6.25-15.61-.87Zm26.27 12.35-3.81-9.74-2.35 7.92-4.11-1.22 4.44-14.98 3.62 1.07 3.98 10.12 2.44-8.21 4.11 1.22-4.44 14.97-3.87-1.15Zm11.9 2.92-4.22-.96 3.45-15.23 4.22.96-3.45 15.23Zm27.25 4.07-12.49-1.35.39-3.64 8.23.89.26-2.37-7.45-.8.37-3.39 7.45.8.27-2.46-8.34-.9.4-3.66 12.6 1.36-1.68 15.53Zm17.23.66c-3.04-.29-10.52.55-12.42-2.01-2.42-2.43-1.27-7.51 2.06-8.45l-3.58-5.54 4.97.14 3.02 4.82 1.92.05.13-4.73 4.33.12-.43 15.62Zm3.73-.06-.19-3.65 8.27-.44-.13-2.38-7.49.39-.18-3.41 7.49-.39-.13-2.47-8.38.44-.19-3.68 12.65-.67.82 15.59-12.54.66Zm26.44-2.35-.8-5.79-5.51.76.8 5.79-4.29.59-2.13-15.48 4.29-.59.81 5.88 5.51-.76-.81-5.88 4.29-.59 2.13 15.48-4.29.59Zm16.98-11.11c-2.5-7.25 5.86-10.48 12.06-11.72l4.35 15.01c-5.84 2.19-14.62 4.17-16.41-3.29Zm20 2.04-1.31-3.42 7.73-2.97-.86-2.23-7 2.69-1.23-3.19 7-2.69-.89-2.31-7.83 3.01-1.32-3.44 11.83-4.55 5.61 14.58-11.73 4.51Zm14.17-5.52-1.63-3.43 4.23-2.01-5.07-10.68 3.91-1.86 5.07 10.68 4.21-2 1.63 3.43-12.36 5.86Zm24.03-12.47-9.7-3.93 4.13 7.15-3.71 2.14-7.82-13.52 3.26-1.89 10.08 4.07-4.29-7.42 3.71-2.14 7.82 13.52-3.5 2.02Zm6.67-4.1-2.09-3 6.79-4.74-1.37-1.96-6.15 4.29-1.95-2.8 6.15-4.29-1.42-2.03-6.88 4.8-2.11-3.02 10.39-7.25 8.94 12.81-10.3 7.19Zm12.07-10.79-.26-3.74c1.95-.13 5.81-1.31 4.91-3.38-2.65-1.15-7.73 4.68-10.64.46-4.21-4.92 3.89-11.15 8.94-10.6l-.04 3.75c-2.1-.02-6.71 1.38-5.8 3.76 2.66 1.14 7.81-4.69 10.67-.45 3.96 4.29-3.15 10.59-7.78 10.19Zm13.17-8.6-2.53-2.64 5.98-5.72-1.65-1.73-5.42 5.18-2.36-2.47 5.42-5.18-1.71-1.79-6.06 5.79-2.54-2.66 9.16-8.75 10.79 11.29-9.08 8.68Zm11.11-13.2c-3.42.28-6.56-3.88-5.12-7.03l-6.54-.85 3.31-3.71 5.62.8 1.28-1.43-3.53-3.15 2.88-3.23 11.65 10.4c-2.18 2.14-6.37 8.39-9.56 8.19Zm15.29-15.53c-6.8 8.14-14.78-2.1-7.45-8.65l-3.56-2.7 2.62-3.45 12.44 9.44-4.06 5.35Zm12.39-17.96-3.18-1.8 4.08-7.2-2.08-1.18-3.7 6.52-2.97-1.68 3.7-6.52-2.15-1.22-4.14 7.3-3.2-1.82 6.25-11.02 13.59 7.7-6.19 10.93Zm.74-17.12c-7.07-2.88-4.03-11.29-.91-16.77l14.18 6.55c-2.05 5.75-6.66 13.88-13.27 10.22Zm7.31-15.99c-10.05-3.16-4.34-19.72 5.53-15.9 10.05 3.16 4.33 19.72-5.53 15.9Zm10.68-16.04-1.63-3.78c3.72-1.29 3.56-6.67-.51-7.5-4.09-1.24-6.67 3.58-4.01 6.45l-3.06 2.58c-5.12-5.15.35-15.78 8.14-13.34 7.68 1.37 7.97 13.34 1.07 15.6Zm-1.36-29.17.94-7.26 3.67.48-.94 7.26-3.67-.48Zm7.49-23.47c6.87-8.75-10.44-11.2-6.52-1.13l1.9.03.05-3.06 3.17.05-.12 7.16-7-.11c-4.62-4.95-1.98-15.7 5.89-15.17 7.44-.32 10.51 10.02 5.67 14.82l-3.04-2.59Z" class="d"/>
        <path d="M369.7 84.27c1.48-1.22-1.57-3.43-2.32-4.41l-2 1.89c.96.86 3.01 3.99 4.32 2.52Zm13.36 259.81 1.24-1.64-3.29-2.5-1.25 1.65c-2.11 2.53 1.51 5.26 3.3 2.48Zm-161.34 3.33c9.23.3 14.61-10.67 7.7-16.67 5.28-5.74.2-14.67-7.7-14.44-7.9-.23-12.99 8.71-7.7 14.44-6.9 6-1.53 16.97 7.7 16.67Zm0-25.48c4.27-.05 4.27 5.98 0 5.92-4.27.05-4.27-5.98 0-5.92Zm0 11.53c5.55-.07 5.55 7.77 0 7.7-5.55.07-5.55-7.77 0-7.7Z" class="d"/>
        <path d="M250.86 316.69c-19.91-1.14-19.9 31.48 0 30.34h12.79v-30.34h-12.8Zm4.61 23.26c-5.75.64-12.33-1.05-12-8.09-.33-7.04 6.25-8.73 12-8.09v16.18Zm-68.5 8.08v-12.22h-.01v-4.95l13.03 16.17h6.87v-30.34h-8.18v16.17l-13.03-16.17h-6.87v30.34c-.3 13.35-1.92 29.07 16.35 30.04v.02l13.35-.05v-7.73c-6.47-.38-21.68 2.74-21.53-7.66h.02v-.62c2.4 1.31 5.18 2.07 8.16 2.07v.02h23.51v-7.73h-23.51c-4.38 0-7.95-3.26-8.16-7.35Zm34.16 15.08v-7.74c2.94-.08 7.86-.39 7.7 3.83.12 4.16-4.75 4.06-7.7 3.91Zm2.56-5.53v3.29c3.26.54 3.23-3.82 0-3.29Zm6.26-2.25h5.45v2.16h-2.94v.67h2.77v2.02h-2.77v.72h3.13v2.16h-5.64v-7.74Zm9.35 7.96c-1.19 0-2.43-.4-3.34-1.16l1.62-1.72c.44.47 1.94 1.25 2.3.39-.5-.86-2.14-.68-2.83-1.51-2.64-3.53 3.53-5.56 5.73-3.02l-1.66 1.65c-.53-1.12-3.29-.52-1.23.16 3.87.45 3.12 5.45-.59 5.21Zm4.31-7.96h2.69v7.74h-2.69v-7.74Z" class="d"/>
        <path d="M251.81 363.27c-8.32-.44-3.21-11.98 3.03-7.05l-1.56 1.83c-2.97-2.8-4.7 3.99-.67 2.88v-.59h-1.28v-2.04h3.64v4.23c-.93.52-2.09.74-3.17.75Zm4.5-7.94h2.65l2.26 3.92h.04l-.11-3.92h2.53v7.74h-2.72l-2.19-3.69h-.04l.11 3.69h-2.53v-7.74Zm-45.34 21.71v-7.75c2.94-.08 7.88-.39 7.71 3.83.12 4.17-4.76 4.07-7.71 3.92Zm2.57-5.54v3.3c3.26.54 3.23-3.83 0-3.3Zm6.27-2.21h5.46v2.17h-2.95v.67h2.77v2.03h-2.77v.72h3.14v2.17h-5.65v-7.75Zm5.84 0h3.02l1.31 4.8h.04l1.26-4.8h3.02l-2.87 7.75h-2.96l-2.81-7.75Zm9.21 0h5.46v2.17h-2.95v.67h2.77v2.03h-2.77v.72h3.14v2.17h-5.65v-7.75Zm6.76 0h2.69v5.51h2.64v2.24h-5.33v-7.75Zm5.46 3.83c-.18-5.36 9-5.35 8.82 0 .17 5.45-9 5.45-8.82 0Zm2.84 0c-.13 2.25 3.27 2.24 3.14 0 .13-2.17-3.27-2.17-3.14 0Zm9.76 1.42v2.5h-2.66v-7.75c.9.04 3.76-.11 4.6.13 3.96 1.02 1.58 6.07-1.94 5.13Zm0-3.23v1.25c1.78.3 1.81-1.58 0-1.25Zm-69.773-214.944L259.7 86.574l22.196 22.197-69.792 69.791zm74.552-68.136 8.895-8.896 15.783 15.783-8.896 8.895zm12.481-8.956 6.675-6.675 12.26 12.26-6.674 6.676zm4.953-10.734 3.338-3.337 18.031 18.03-3.338 3.338zm-103.373 93.9h-12.04v14.38h12.04a21.63 21.63 0 0 1 0-14.38Zm2.52 35.16 8.51-8.51c-4.32-1.98-8.19-5.85-10.17-10.17l-8.51 8.51 10.17 10.17Zm10.61-7.65v12.04h14.38v-12.04a21.63 21.63 0 0 1-14.38 0Z" class="d"/>
        <path d="m212.06 182.85-26.44-26.44c-17.06 17.69 8.76 43.5 26.44 26.44Z" class="d"/>
        <path d="M234.34 163.29c9.85 9.54 16.72 27.33 16.27 45.56H138.52v12.34h27.12l19.99 61.18 56.34.2-2.79-6.15c39.83-19.72 45.33-99.91 11.31-129.29l-16.16 16.16Zm-20.16 57.9h35.16c-2.88 15.17-10.31 27.97-19.64 34.27l-15.52-34.27Zm-95.23 64.57h204.57v11.67H118.95zm23.14 13.39h-16.14c4.51 11.71 7.79 8.74 16.11 8.54 8.32.19 11.6 3.16 16.11-8.54h-16.09Zm158.33 0h-16.14c4.51 11.71 7.79 8.74 16.11 8.54 8.32.19 11.6 3.16 16.11-8.54h-16.09Z" class="d"/>
    </g>
</svg>