<?xml version="1.0" encoding="UTF-8"?>
<svg id="b"
    xmlns="http://www.w3.org/2000/svg" viewBox="0 0 205.64 147.24">
    <g>
        <path class="d" d="m104.05,75.36c14.53,0,26.32-10.6,26.32-23.68,0-6.52-2.93-12.41-7.66-16.7,3.29-3.69,5.27-8.36,5.27-13.46,0-11.89-10.71-21.53-23.93-21.53s-23.93,9.64-23.93,21.53c0,5.1,1.98,9.77,5.27,13.46-4.73,4.28-7.66,10.18-7.66,16.7,0,13.08,11.78,23.68,26.32,23.68m0-61.72c4.4,0,7.98,3.21,7.98,7.18s-3.57,7.18-7.98,7.18-7.97-3.21-7.97-7.18,3.57-7.18,7.97-7.18m0,27.93c5.73,0,10.37,4.18,10.37,9.33s-4.64,9.33-10.37,9.33-10.37-4.18-10.37-9.33,4.64-9.33,10.37-9.33"/>
        <path class="d" d="m174.64.93c-7.18,0-13.55,1.51-19.1,4.51-5.56,3.01-9.86,7.28-12.92,12.81-3.06,5.53-4.59,12.01-4.59,19.42s1.53,13.89,4.59,19.42c3.06,5.53,7.37,9.8,12.92,12.81,5.56,3.01,11.93,4.51,19.1,4.51h31V.93h-31Zm11.18,56.35h-9.58c-5.88,0-10.6-1.74-14.16-5.21-3.56-3.47-5.34-8.27-5.34-14.39s1.78-10.92,5.34-14.39c3.56-3.47,8.28-5.21,14.16-5.21h9.58v39.2Z"/>
        <path class="d" d="m19.85,76.86v-29.61h-.03v-11.99l31.57,39.16h16.65V.93h-19.82v39.16L16.65.93H0v75.03h0v33.87c0,20.64,17.73,37.37,39.61,37.37v.04l31.51-.13v-18.73l-31.51.13c-10.94,0-19.81-8.36-19.81-18.68h.05v-1.51c5.82,3.17,12.55,5.01,19.76,5.01v.04h31.3s.21-18.72.21-18.72h-31.51c-10.62-.01-19.26-7.9-19.76-17.8"/>
        <path d="m196.12,119.8c4.27-2.01,7.72-5.53,7.72-11.52v-.3c0-3.75-1.28-6.59-3.37-8.76-3.14-3.06-7.94-4.56-14.3-4.56h-21.7v40.26h-6.92l-14.09-40.26h-13.89l-14.07,40.26h-15.91v-40.26h-13.46v52.39h38.98l.04-.13,2.95-9.3h16.47l3.02,9.3.04.13h38.62c1.06,0,2.08-.04,3.06-.13,10.44-.86,16.33-6.26,16.33-14.4v-.3c0-6.88-3.9-10.4-9.52-12.42Zm-64.58,7.04l4.79-15.34,4.86,15.34h-9.65Zm46.03-20.96h6.73c3.96,0,6.29,1.65,6.29,4.86v.08c0,3.22-2.48,4.87-6.58,4.87h-6.44v-9.81Zm14.66,24.84c0,3.23-2.47,5.1-6.73,5.1h-7.93v-10.26h7.85c4.49,0,6.81,2.03,6.81,5.09v.07Z"/>
    </g>
</svg>